# xmcd CD database file
#
# Track frame offsets:
#	150
#	22578
#	42230
#	64819
#	83521
#	107995
#	127784
#	149237
#	170241
#	190326
#	209069
#	227938
#	246675
#	266703
#
# Disc length: 3777 seconds
#
# Revision: 0
# Processed by: cddbd v1.5.1PL2 Copyright (c) Steve Scherf et al.
# Submitted via: CDex 1.60beta1-cs1
#
DISCID=d70ebf0e
DTITLE=Joeve - With The Kingdom Of The Fairies
DYEAR=2003
DGENRE=New Age
TTITLE0=The Fairy Of The Lilies
TTITLE1=Magic Meeting
TTITLE2=The Round Of The Fairies
TTITLE3=Dawn Serenade With The Moon
TTITLE4=The Lady With The Unicorn
TTITLE5=The Fountain With The Imps
TTITLE6=For The Love Of A Princess
TTITLE7=Celtic Ballade
TTITLE8=The Imaginary City
TTITLE9=The Mountain With The Secrecies
TTITLE10=Magic Wands
TTITLE11=The Mysterious Call
TTITLE12=The Revealed Secrecy
TTITLE13=Incantation Of The Fairy Of The Lilies
EXTD=YEAR: 2003
EXTT0=
EXTT1=
EXTT2=
EXTT3=
EXTT4=
EXTT5=
EXTT6=
EXTT7=
EXTT8=
EXTT9=
EXTT10=
EXTT11=
EXTT12=
EXTT13=
PLAYORDER=
